# xmcd CD database file
#
# Track frame offsets:
#	150
#	12627
#	25521
#	39569
#	53717
#	69117
#	92283
#	106361
#	120498
#	133118
#	149225
#	160514
#	171595
#	196446
#	224393
#	237699
#
# Disc length: 3350 seconds
#
# Revision: 0
# Processed by: cddbd v1.5.2PL0 Copyright (c) Steve Scherf et al.
# Submitted via: CDex 1.70beta2
#
DISCID=e30d1410
DTITLE=Best Of Blues - Best Of Blues CD 2-2
DYEAR=2008
DGENRE=Blues
TTITLE0=Elmore James - Dust My Broom
TTITLE1=Rufus Thomas - Bear Cat
TTITLE2=John Lee Hooker - I'm In The Mood
TTITLE3=Big Joe Williams - Nobody Knows You When Your Down And out
TTITLE4=Nina Simone - I Want A Little Sugar In My Bowl
TTITLE5=Muddy Waters (Little Walter on Harmonica) - Mannish Boy
TTITLE6=Otis Rush - I Can't Quit You Baby
TTITLE7=Eric Clapton and Jimmy Page - Draggin' My Tail
TTITLE8=Elmore James - The Sky Is Crying
TTITLE9=B.B. King - It's My Own Fault Baby
TTITLE10=Johnny Winter - Avocado Green
TTITLE11=Cannet Heat - Can't Hold On
TTITLE12=Freddie King - Going Down
TTITLE13=Champion Jack Dupree - Hard Feelings
TTITLE14=Buster Brown - Fannie Mae
TTITLE15=T-Bone Walker - I'm Waiting For Your Call
EXTD=YEAR: 2008
EXTT0=
EXTT1=
EXTT2=
EXTT3=
EXTT4=
EXTT5=
EXTT6=
EXTT7=
EXTT8=
EXTT9=
EXTT10=
EXTT11=
EXTT12=
EXTT13=
EXTT14=
EXTT15=
PLAYORDER=
